<svg width="106" height="44" viewBox="0 0 106 44" fill="none" xmlns="http://www.w3.org/2000/svg">
<path d="M3.96 36C3.66667 36 3.42667 35.9067 3.24 35.72C3.05333 35.5333 2.96 35.2933 2.96 35V9C2.96 8.70667 3.05333 8.46667 3.24 8.28C3.42667 8.09333 3.66667 8 3.96 8H8.4C8.69333 8 8.93333 8.09333 9.12 8.28C9.30667 8.46667 9.4 8.70667 9.4 9V30.64H21.8C22.0933 30.64 22.3333 30.7333 22.52 30.92C22.7067 31.1067 22.8 31.3467 22.8 31.64V35C22.8 35.2933 22.7067 35.5333 22.52 35.72C22.3333 35.9067 22.0933 36 21.8 36H3.96ZM33.285 36.4C31.7383 36.4 30.365 36.0533 29.165 35.36C27.9917 34.64 27.0717 33.6133 26.405 32.28C25.765 30.92 25.445 29.28 25.445 27.36V16.2C25.445 15.9067 25.5383 15.6667 25.725 15.48C25.9117 15.2933 26.1383 15.2 26.405 15.2H30.645C30.9383 15.2 31.1783 15.2933 31.365 15.48C31.5517 15.6667 31.645 15.9067 31.645 16.2V27.12C31.645 30.1067 32.9517 31.6 35.565 31.6C36.8183 31.6 37.805 31.2133 38.525 30.44C39.2717 29.64 39.645 28.5333 39.645 27.12V16.2C39.645 15.9067 39.7383 15.6667 39.925 15.48C40.1117 15.2933 40.3517 15.2 40.645 15.2H44.885C45.1517 15.2 45.3783 15.2933 45.565 15.48C45.7517 15.6667 45.845 15.9067 45.845 16.2V35C45.845 35.2933 45.7517 35.5333 45.565 35.72C45.3783 35.9067 45.1517 36 44.885 36H40.965C40.6717 36 40.4317 35.9067 40.245 35.72C40.0583 35.5333 39.965 35.2933 39.965 35V33.44C39.2717 34.4 38.3783 35.1333 37.285 35.64C36.1917 36.1467 34.8583 36.4 33.285 36.4ZM50.8794 36C50.6127 36 50.386 35.9067 50.1994 35.72C50.0127 35.5333 49.9194 35.2933 49.9194 35V32.32C49.9194 32.0533 49.9727 31.8133 50.0794 31.6C50.2127 31.3867 50.3594 31.1867 50.5194 31L60.3194 19.84H51.2394C50.946 19.84 50.706 19.7467 50.5194 19.56C50.3327 19.3733 50.2394 19.1467 50.2394 18.88V16.2C50.2394 15.9067 50.3327 15.6667 50.5194 15.48C50.706 15.2933 50.946 15.2 51.2394 15.2H66.8394C67.1327 15.2 67.3727 15.2933 67.5594 15.48C67.746 15.6667 67.8394 15.9067 67.8394 16.2V19.08C67.8394 19.32 67.786 19.5333 67.6794 19.72C67.5727 19.9067 67.4394 20.0933 67.2794 20.28L57.6794 31.36H67.6794C67.946 31.36 68.1727 31.4533 68.3594 31.64C68.546 31.8267 68.6394 32.0533 68.6394 32.32V35C68.6394 35.2933 68.546 35.5333 68.3594 35.72C68.1727 35.9067 67.946 36 67.6794 36H50.8794Z" fill="#424242"/>
<path d="M73.48 36C73.2133 36 72.9867 35.9067 72.8 35.72C72.6133 35.5333 72.52 35.2933 72.52 35V16.2C72.52 15.9067 72.6133 15.6667 72.8 15.48C72.9867 15.2933 73.2133 15.2 73.48 15.2H77.48C77.7733 15.2 78.0133 15.2933 78.2 15.48C78.3867 15.6667 78.48 15.9067 78.48 16.2V35C78.48 35.2933 78.3867 35.5333 78.2 35.72C78.0133 35.9067 77.7733 36 77.48 36H73.48ZM73.36 12C73.0933 12 72.8667 11.9067 72.68 11.72C72.4933 11.5333 72.4 11.2933 72.4 11V7.8C72.4 7.50667 72.4933 7.26667 72.68 7.08C72.8667 6.86667 73.0933 6.76 73.36 6.76H77.56C77.8533 6.76 78.0933 6.86667 78.28 7.08C78.4933 7.26667 78.6 7.50667 78.6 7.8V11C78.6 11.2933 78.4933 11.5333 78.28 11.72C78.0933 11.9067 77.8533 12 77.56 12H73.36ZM93.1728 36.4C90.9595 36.4 89.1061 36.04 87.6128 35.32C86.1195 34.5733 84.9728 33.52 84.1728 32.16C83.3995 30.8 82.9728 29.2133 82.8928 27.4C82.8661 26.8667 82.8528 26.2667 82.8528 25.6C82.8528 24.9067 82.8661 24.3067 82.8928 23.8C82.9728 21.96 83.4261 20.3733 84.2528 19.04C85.0795 17.68 86.2395 16.64 87.7328 15.92C89.2261 15.1733 91.0395 14.8 93.1728 14.8C95.2795 14.8 97.0795 15.1733 98.5728 15.92C100.066 16.64 101.226 17.68 102.053 19.04C102.879 20.3733 103.333 21.96 103.413 23.8C103.466 24.3067 103.493 24.9067 103.493 25.6C103.493 26.2667 103.466 26.8667 103.413 27.4C103.333 29.2133 102.893 30.8 102.093 32.16C101.319 33.52 100.186 34.5733 98.6928 35.32C97.1995 36.04 95.3595 36.4 93.1728 36.4ZM93.1728 32C94.4795 32 95.4661 31.6 96.1328 30.8C96.7995 29.9733 97.1595 28.7733 97.2128 27.2C97.2395 26.8 97.2528 26.2667 97.2528 25.6C97.2528 24.9333 97.2395 24.4 97.2128 24C97.1595 22.4533 96.7995 21.2667 96.1328 20.44C95.4661 19.6133 94.4795 19.2 93.1728 19.2C91.8661 19.2 90.8661 19.6133 90.1728 20.44C89.5061 21.2667 89.1461 22.4533 89.0928 24C89.0661 24.4 89.0528 24.9333 89.0528 25.6C89.0528 26.2667 89.0661 26.8 89.0928 27.2C89.1461 28.7733 89.5061 29.9733 90.1728 30.8C90.8661 31.6 91.8661 32 93.1728 32Z" fill="#9E9E9E"/>
</svg>
